<?xml version="1.0" encoding="UTF-8"?>
<svg enable-background="new 0 0 1226.2827 1692.3915" version="1.1" viewBox="0 0 1226.2827 1692.3915" xmlns="http://www.w3.org/2000/svg">
 <linearGradient id="aj" x1="33.473" x2="1192.8" y1="846.2" y2="846.2" gradientUnits="userSpaceOnUse">
  <stop stop-color="#9C420F" offset="0"/>
  <stop stop-color="#EE6321" offset=".1576"/>
  <stop stop-color="#EF6720" offset=".2028"/>
  <stop stop-color="#F0751D" offset=".2526"/>
  <stop stop-color="#F38B18" offset=".3045"/>
  <stop stop-color="#F6AA11" offset=".3579"/>
  <stop stop-color="#FBD108" offset=".412"/>
  <stop stop-color="#FFF101" offset=".45"/>
  <stop stop-color="#FFF101" offset=".55"/>
  <stop stop-color="#FEEC02" offset=".5578"/>
  <stop stop-color="#F9BB0D" offset=".6334"/>
  <stop stop-color="#F49516" offset=".705"/>
  <stop stop-color="#F1791C" offset=".7708"/>
  <stop stop-color="#EF6920" offset=".8288"/>
  <stop stop-color="#EE6321" offset=".8727"/>
  <stop stop-color="#A1420E" offset="1"/>
 </linearGradient>
 <path d="m1192.5 655.41c1.87 18.06-5.11 34.24-20.2 46.77-20.37 16.9-54.17 25.54-91.36 22.25 30.88 81.83 21.24 161.67-27.49 225.68-191.97 252.23-139.15 292.55-107.59 316.63l36.49 27.85-45.9 1.02c-45.12 0.98-74.23-12.78-92.14-26.72-1.67 23.21 0.32 42.47 5.93 57.37 6.6 17.53 18.05 29.01 34.98 35.09l35.62 12.77-33.91 16.78c-11.33 5.62-23.78 8.46-36.99 8.46-25.63 0-50.36-10.62-69.23-21.72 10.81 38.96 31.23 72.85 57.12 94.3l34.37 28.47h-44.63c-75.28 0-130.46-47.49-153.58-131.13-36.58 112.77-81.04 196.85-123.1 232.21l-53.15 44.71 28.09-63.52c21.35-48.3 33.82-112.58 36.47-187.27-11.51 25.7-26.44 48.07-43.96 65.69-31 31.17-69.21 47.66-110.51 47.66h-44.63l34.37-28.48c22.6-18.74 41.28-50.26 52.31-87.85-15.69 9.71-37.04 18.56-62.85 18.56-10.91 0-22.08-1.59-33.17-4.72l-48.4-13.65 47.34-16.98c16.32-5.85 27.38-16.28 33.83-31.91 7.86-19.01 9.08-45.83 3.65-79.8-18.08 16.36-48.47 32.79-98.1 31.67l-45.89-1.01 36.5-27.85c30.27-23.11 80.94-61.78-107.74-316.81-59.41-80.29-48.27-162.86-26.24-220.84-6.22 0.97-12.52 1.46-18.83 1.46-18.86 0-36.93-4.3-52.26-12.44-24.64-13.1-39.42-34.28-41.6-59.65l-2.66-30.86 26.77 15.57c12.03 6.9901 25.42 8.55 39.73 4.65 25.67-7.04 53.3-31.39 70.4-62.03 0.37-0.67 0.74-1.34 1.11-2-9.27 0.3199-18.43-0.95-27.43-3.65-25.7-7.72-46.54-26.96-57.17-52.78l-12.26-29.78 31.17 8.08c5.84 1.52 11.3 2.28 16.24 2.28 30.97 0 45.59-31.14 64.36-78.64 3.01-7.63 6.2-15.64 9.6-23.59-23.88-1.73-51.58-9-63.03-31.89l-11.1-22.21 24.81-1.05c39.32-1.67 64.81-43.21 87.3-79.86 7.87-12.83 15.3-24.93 22.93-34.51 2.14-2.68 4.48-5.35 7.01-7.98-22.18-7.77-49.33-21.79-67.45-46.57l-28.17-38.52 45.74 13.6c6.14 1.83 12.11 2.72 18.27 2.72 21.89 0 41.85-11.62 62.99-23.93 18.92-11.01 38.46-22.38 61.19-26.86 7.7-1.51 15.91-2.34 24.45-2.49 9.95-15.34 37.14-44.86 98.71-44.86 4.74 0 9.67 0.18 14.64 0.52 8.23 0.57 16.48 2 24.57 4.26 8.27-6.75 20.73-11.86 37.1-15.24 14.71-3.04 32.12-4.64 50.36-4.64 46.01 0 85.17 9.75 105.78 26.19 5.18-1.47 10.26-2.53 15.46-3.21 9.55-1.27 18.83-1.92 27.61-1.92 56.69 0 82.96 26.5 92.88 40.52 7.74-0.38 15.47-0.16 22.84 0.68 32.2 3.61 55.21 15.88 75.52 26.69 22.79 12.15 42.1 22.43 72 20.93l30.67-1.57-16.18 26.11c-11.45 18.45-27.25 31.68-47.09 39.45 24.77 19.53 40.86 44.21 45.66 70.37 5.29 28.78 14.9 48.05 27.79 55.7 9.3099 5.52 17.22 3.14 17.25 3.13l36.46-12-17.27 34.54c-11.45 22.91-39.43 30.82-63.45 33.16 5.6 13.98 10.48 29.98 14.85 44.33 9.53 31.27 21.39 70.17 37.45 76.09 5.5901 2.07 13.02 0 22.52-6.09l47.66-30.5-24.48 51.01c-13.29 27.68-33.48 41.13-61.73 41.13-4.2301 0-8.64-0.29-13.43-0.9 1.0601 1.89 2.13 3.81 3.2 5.75 17.97 32.19 68.36 68.9 94.59 68.9l1.02-0.02c6.08-0.22 7.26-2.73 8.0399-4.4l24.55-52.61 6.0301 57.75zm-37.33 26.14c0.05-0.03 0.0801-0.07 0.13-0.11-0.15 0.01-0.28 0.02-0.4199 0.02-39.05 1.47-98.61-44.24-120.02-82.61-4.02-7.21-7.87-14.17-11.58-20.87-59.43-107.34-80.01-144.37-201.65-145.29-1.55 7.94-2.89 14.6-3.69 18.43 1.27 2.81 2.41 5.65 3.48 8.49 0.35-0.09 0.67-0.17 1.06-0.26 3.19-0.44 7.44-1.23 11.59-1.35 3.97 0.12 8.56-0.19 13.25 0.52 2.36 0.27 4.82 0.54 7.37 0.83 2.47 0.49 5.04 0.99 7.68 1.5 5.3 0.87 10.59 2.74 16.16 4.19 5.4 2.02 11.11 3.66 16.55 6.25 2.75 1.22 5.54 2.36 8.27 3.67l8.08 4.22c2.72 1.33 5.29 2.97 7.84 4.58 2.55 1.62 5.15 3.12 7.6 4.82 4.73 3.66 9.67 6.79 13.76 10.76 2.11 1.87 4.18 3.73 6.21 5.53 1.85 2 3.66 3.95 5.42 5.86 3.66 3.64 6.39 7.74 9.05 11.35 2.83 3.48 4.49 7.32 6.32 10.44 0.86 1.6 1.73 3.05 2.39 4.46 0.56 1.47 1.07 2.82 1.53 4.04 1.83 4.83 2.8701 7.59 2.8701 7.59s-1.34-2.62-3.7-7.2c-0.59-1.14-1.24-2.39-1.94-3.77-0.8-1.31-1.84-2.64-2.84-4.1-2.15-2.85-4.13-6.33-7.28-9.4-2.97-3.19-5.98-6.78-9.91-9.89-1.88-1.61-3.8-3.27-5.77-4.97-2.13-1.5-4.29-3.03-6.51-4.59-4.25-3.29-9.35-5.74-14.14-8.66-2.48-1.34-5.11-2.47-7.67-3.72-2.57-1.24-5.13-2.49-7.85-3.44l-7.97-3.09c-2.69-0.93-5.42-1.69-8.09-2.53-5.3-1.83-10.76-2.71-15.88-4.01-5.24-0.72-10.23-1.9-15.01-2.1-2.3701-0.19-4.6801-0.38-6.92-0.57-2.2 0.02-4.33 0.02-6.37 0.03-4.13-0.18-7.63 0.59-10.82 0.81-3 0.45-4.87 1.14-6.77 1.41-0.58 0.19-1.14 0.4-1.69 0.61 1.7599 8.19 2.67 16.35 2.8 24.37 80.44 9.84 182.43 93.43 231.71 190.51 35.37 8.1201 74.28 3.0902 93.37-12.76zm-73.15-129.18c-2.2899-0.4-4.5399-1.01-6.7599-1.82-28.55-10.52-41.4-52.67-53.82-93.43-5.62-18.43-10.92-35.84-17.34-49.82-18.92-41.23-46.03-67.76-78.37-76.74-32-8.88-68.11-0.7-107.46 24.28 3.54 3.13 6.49 5.55 8.52 6.91l5.14 3.45-0.4 5.86c1.04-0.5 2.01-1.03 3.1-1.5 17.54-7.86 42.15-12.82 66.71-11.13 6.11 0.58 12.2 1.26 18.08 2.72 5.8799 1.32 11.55 3.15 16.81 5.43 5.28 2.22 10.13 4.93 14.43 7.89 4.33 2.92 8.02 6.19 11.22 9.38 3.1 3.29 5.75 6.43 7.77 9.46 2.23 2.87 3.52 5.81 4.91 7.98 2.26 4.66 3.43 7.34 3.43 7.34s-1.49-2.55-4.22-6.87c-1.62-1.99-3.18-4.69-5.68-7.23-2.28-2.7-5.18-5.44-8.47-8.21-3.39-2.67-7.2-5.34-11.54-7.6-4.32-2.3-9.09-4.28-14.17-5.77-5.08-1.54-10.46-2.62-15.98-3.2-5.5-0.73-11.18-0.7-16.79-0.6-22.54 0.97-44.55 8.29-58.31 16.54-3.48 2.01-6.38 4.1-8.73 6-2.26 1.93-4.08 3.69-5.05 5.09-0.28 0.34-0.53 0.66-0.77 0.97-0.08 0.18-0.11 0.3-0.18 0.42-0.06 0.1-0.13 0.16-0.22 0.3-0.7 4.21-1.45 8.52-2.22 12.83 122.32 1.92 154.19 44.96 205.31 136.36l2.27 0.56c20.07 4.98 35.96 8.3101 48.78 4.15zm-49.9 381.5c60.72-79.77 41.45-164.57 14.58-221.67-44.53-94.61-142.29-177.53-218.28-187.02-1.25 7.15-3.23 14.09-5.9 20.71 3.28 1.33 6.75 2.8 10.67 4.53 5.58 2.6201 11.8 5.7 18.41 9.31 6.58 3.69 13.58 7.83 20.75 12.56 7.17 4.72 14.56 9.92 21.92 15.63 7.39 5.69 14.8 11.83 22.03 18.37 7.3 6.47 14.31 13.47 21.18 20.57 13.6 14.35 26.11 29.69 36.37 45.07 5.17 7.66 9.79 15.32 13.75 22.79 4.09 7.41 7.29 14.77 10.12 21.57 2.65 6.89 4.8 13.29 6.24 19.1 1.52 5.79 2.41 10.93 2.97 15.17 0.53 4.25 0.77 7.6 0.76 9.89 0.07 2.28 0.11 3.5 0.11 3.5s-0.1299-1.22-0.35-3.49c-0.15-2.27-0.62-5.59-1.44-9.75-0.83-4.16-2.06-9.18-3.94-14.76-1.82-5.61-4.37-11.76-7.42-18.32-3.24-6.48-6.86-13.44-11.35-20.41-4.3799-7.04-9.39-14.2-14.96-21.31-11.03-14.31-24.23-28.4-38.37-41.4-7.14-6.42-14.38-12.72-21.86-18.48-7.41-5.83-14.94-11.24-22.39-16.2-7.43-4.98-14.83-9.46-21.94-13.47-7.11-4.02-13.99-7.46-20.39-10.5-6.43-2.96-12.41-5.42-17.73-7.48-4.96-1.79-9.27-3.31-12.87-4.39-7.83 11.53-17.73 20.84-29.42 27.53 68.98 39.93 146.51 119.48 175.16 208.59 21.69 67.48 15.16 133.3-19.41 195.66-49.76 89.75-82.2 170.89-94.81 234.39 5.13 8.16 22.53 30.32 63.4 36.85-40.21-50.75-25.55-136.1 124.41-333.14zm21.6-560.72c-2.67-1.02-5.4-2.31-8.15-3.95-20.04-11.89-33.66-36.77-40.49-73.91-7.08-38.58-49.6-73.62-101.09-83.31-28.67-5.4-100.22-9.36-149.63 68.33 1.1 5.47 8.59 15.93 18.49 27.64 0.25-0.37 0.45-0.67 0.72-1.07 1.61-2.24 4.19-5.23 6.84-8.42 2.78-3.06 5.96-6.09 9.52-9.43 3.8-3.01 7.64-6.57 12.3-9.5 2.3-1.51 4.53-3.24 7.05-4.63 2.49-1.4 5.05-2.83 7.65-4.29 2.57-1.48 5.4301-2.54 8.1801-3.84 2.7599-1.3 5.59-2.5 8.5699-3.41 2.95-0.97 5.86-2.1 8.89-2.92l9.15-2.16c3.02-0.82 6.21-0.94 9.28-1.43 3.08-0.42 6.14-0.84 9.23-0.78 3.06-0.06 6.1-0.12 9.1-0.17 2.98 0.27 5.92 0.54 8.83 0.82 1.43 0.13 2.86 0.27 4.28 0.41 1.39 0.29 2.77 0.58 4.13 0.88 2.71 0.59 5.36 1.17 7.94 1.73 5.08 1.44 9.71 3.3 14.02 4.75 4.14 1.93 7.86 3.86 11.16 5.48 3.37 1.5 5.86 3.65 8.12 4.97 4.12 2.71 6.58 4.33 6.87 4.52-0.31-0.15-2.94-1.49-7.33-3.72-2.39-1.06-5.02-2.89-8.51-3.98-3.42-1.23-7.23-2.69-11.42-4.11-4.36-0.93-8.98-2.22-13.94-3.04-2.5-0.26-5.08-0.53-7.7-0.8-1.31-0.13-2.63-0.26-3.96-0.39-1.35 0.02-2.7 0.04-4.07 0.07-2.72 0.05-5.48 0.1-8.28 0.15-2.77 0.36-5.57 0.74-8.4 1.11-2.82 0.25-5.6 0.97-8.38 1.67-2.77 0.78-5.61 1.16-8.29 2.25l-8.08 2.88c-2.65 1.04-5.17 2.39-7.72 3.54-2.58 1.11-4.99 2.47-7.33 3.93-2.34 1.45-4.76 2.63-6.9 4.23-2.16 1.54-4.28 3.06-6.35 4.55-2.08 1.46-3.86 3.23-5.72 4.76-3.79 3-6.73 6.49-9.7 9.39-2.65 3.15-5.16 6.13-7.01 8.7-1.69 2.68-3.18 4.61-4.41 6.78-2.04 3.86-3.29 6.24-3.68 6.97 4.94 5.3 9.98 10.5 14.79 15.29 46.37-30.65 89.81-40.72 129.17-29.8 33.05 9.17 61.1 32.91 82.08 69.08 10.42 0.0499 27.03-1.1201 40.18-5.82zm-56.64-191.04c-25.34-3.07-44.56-13.31-63.29-23.29-19.95-10.63-38.8-20.67-65.92-23.72-35.69-3.99-77.49 10.01-109 36.6-22.23 18.76-48.85 51.37-56.46 102.88 15.58-5.43 28.36-7.39 35.44-8.1 39.42-60.02 102.56-88.29 170.11-75.58 11.79 2.22 23.11 5.59 33.78 9.89 6.63 0.39 33.78 0.66 55.34-18.68zm-76.72 803.26c31.58-56.97 37.55-117.09 17.75-178.69-32.55-101.26-124.98-177.21-181.36-205.09-5.09 1.14-10.3 2.04-15.76 2.44-0.21 3.26-0.53 7.22-0.96 11.62 1.33 0.67 2.83 1.43 4.51 2.29 3.55 1.84 8.06 4.71 13.08 7.67 4.97 3.09 10.1 6.88 15.86 10.92 5.39 4.46 11.59 8.85 17.37 14.37 2.93 2.7 6.05 5.37 9.04 8.29 2.92 2.98 5.9 6.02 8.94 9.12 3.11 3.01 5.85 6.48 8.81 9.8 2.9 3.37 5.95 6.6801 8.62 10.35 2.77 3.59 5.55 7.2 8.34 10.83 2.57 3.79 5.15 7.59 7.73 11.39 2.66 3.73 4.96 7.71 7.26 11.65 2.26 3.97 4.76 7.76 6.76 11.81 4.05 8.05 8.22 15.86 11.33 23.85 1.6 3.96 3.44 7.74 4.75 11.65 1.33 3.88 2.63 7.69 3.9 11.39 0.63 1.85 1.25 3.68 1.86 5.47 0.48 1.83 0.96 3.64 1.43 5.42 0.93 3.55 1.83 6.98 2.69 10.27 1.8 6.57 2.5 12.8 3.62 18.2 1.15 5.38 1.4901 10.2 1.9 14.13 0.74 7.36 1.19 11.77 1.24 12.29-0.09-0.52-0.87-4.88-2.15-12.16-0.7-3.88-1.39-8.6-2.9301-13.87-1.5099-5.27-2.65-11.35-4.9-17.69-1.1-3.17-2.23-6.49-3.41-9.91-0.59-1.7-1.18-3.44-1.79-5.21-0.73-1.71-1.47-3.46-2.23-5.23-1.51-3.52-3.06-7.15-4.64-10.85-1.55-3.71-3.65-7.28-5.49-11.02-3.6-7.54-8.22-14.84-12.72-22.34-2.21-3.76-4.93-7.26-7.39-10.92-2.5-3.64-4.9901-7.3-7.83-10.71-2.75-3.47-5.5-6.94-8.23-10.39-2.94-3.28-5.86-6.54-8.76-9.79-2.81-3.3-5.97-6.25-8.98-9.26-3.06-2.95-5.88-6.06-9.07-8.69-3.09-2.72-6.1299-5.39-9.1-8.01-3.03-2.54-6.16-4.83-9.1-7.16-5.8-4.8-11.92-8.44-17.22-12.22-5.57-3.31-10.69-6.54-15.24-8.91-4.08-1.9901-7.43-3.82-10.62-5.29-1.63 10.21-3.89 21.19-7 31.87 161.05 157.38 131.27 261.24 77.54 447.6-9.38 32.57-20.03 69.49-30.34 109.27-10.51 40.55-12.92 77.3-9.82 109.78 9.49 7.9801 47.04 37.45 83.24 36.82-11.39-9.28-20.01-21.59-25.74-36.82-25.46-67.6 9.2501-195.29 95.21-350.33zm-114.77-68.32c0.05 10.7-0.78 21.02-2.03 30.71-1.31 9.67-2.96 18.76-5.11 26.99-1.79 8.31-4.5 15.64-6.44 22.24-2.47 6.43-4.47 12.08-6.38 16.63-3.88 8.66-6.16 13.74-6.33 14.11 0.1201-0.3099 2.1-5.52 5.47-14.44 1.63-4.63 3.28-10.38 5.35-16.88 1.53-6.6801 3.78-14.05 5.05-22.36 1.64-8.22 2.73-17.26 3.44-26.79 0.66-9.55 0.87-19.65 0.1899-30.03-0.16-2.6-0.31-5.21-0.47-7.84-0.32-2.63-0.64-5.27-0.95-7.92-0.5-5.32-1.6-10.63-2.51-15.99-2.12-10.68-4.83-21.4-8.43-31.83-6.93-20.95-16.81-40.78-27.69-58.24-5.56-8.67-11.15-16.9-17-24.27-5.8-7.41-11.56-14.18-17.19-20.09-1.77-1.9-3.51-3.69-5.24-5.42l-2.99 2.24c-0.29 0.22-16.44 12.35-34.64 26.81 48.6 58.09 55.27 164.84 51.93 246.26-3.64 88.74-20.13 186.38-44.07 276.45 5.96 96.41 45.98 158.86 109.16 173.1-41.23-49.4-71.44-136.42-42-249.96 10.38-40.05 21.06-77.12 30.49-109.82 52.29-181.39 79.25-275.06-65.08-419.63-3.34 7.14-7.23 13.65-11.81 19l-0.29 0.34c7.93 6.66 17.81 16.22 28.09 28.63 5.6299 6.67 11.3 14.2 16.94 22.38 5.7 8.14 11.07 17.15 16.36 26.57 10.32 19 19.39 40.32 25.3 62.55 3.08 11.06 5.25 22.37 6.77 33.53 0.62 5.61 1.41 11.14 1.61 16.67 0.16 2.75 0.32 5.48 0.48 8.2 2e-4 2.7101 0.0102 5.41 0.0202 8.1zm-3.62-495.66c3-15.73 6.32-34.36 7.66-46.26-16.05-13.95-64.25-57.79-74.71-86.68-18.48 2.77-62.1 13.88-97.05 58.02l-9.36 11.83-8.1-12.73c-20.36-32.01-57.17-56.13-106.72-70-28.93 34.88-76.68 75.48-93.3 89.26l19.53 56.8 9.23 26.84-2.8 4.37c-19.57 30.59-22.25 65.32-7.16 92.88 12.93 23.63 36.88 37.19 65.7 37.19l11.53-0.13 0.43 10.41c0.8 19.48 6.52 72.02 23.11 98.3l74.31-28.6v-45.16c-12.78-10.27-35.89-28.44-51.68-38.63h40.96l21.44 18.1 17.43-18.1h33.51l-40.21 35.58v48.48l62.82 26.74c16.26-26.18 21.05-77.48 21.5-96.52l0.25-10.6 11.83 0.13c28.16 0 51.05-11.75 64.47-33.07 15.99-25.42 16.16-60.11 0.47-92.78l-1.58-3.27 0.75-3.57c0.0599-0.2701 2.7399-13.1 5.7399-28.83zm-56.94-266.08c22.53-19.01 49.04-32.19 75.93-38.37-11.41-11.76-37.26-28.17-89.89-21.19-76.37 10.14-89.51 112.88-90.49 216.25 13.03-12.13 26.44-21.05 39.1-27.61 4.4999-51.51 27.52-97.16 65.35-129.08zm-32.84 864.75c4.53-110.23-11.78-190.01-47.18-231.9-9.37 7.72-18.17 15.29-24.54 21.42l-0.96 0.92c-0.4 8.92-1.11 24.36-2 43.84-0.64 15.7-1.42 34.01-2.04 53.64-0.73 19.63-1.34 40.57-1.76 61.5-0.22 10.47-0.6 20.95-0.66 31.26-0.1 10.31-0.1899 20.45-0.28 30.26-0.09 9.83-0.26 19.33-0.03 28.31 0.13 9 0.26 17.51 0.38 25.36 0.11 7.86 0.14 15.06 0.67 21.42 0.4 6.37 0.74 11.92 1.03 16.49 0.57 9.17 0.9 14.4 0.9 14.4s-0.66-5.2-1.82-14.3c-0.58-4.55-1.28-10.08-2.08-16.43-0.95-6.35-1.43-13.54-2.05-21.39s-1.29-16.35-2-25.35c-0.81-9-1.24-18.5-1.79-28.33-0.53-9.8201-1.09-19.98-1.65-30.3-0.6-10.32-0.89-20.81-1.35-31.29-0.91-20.99-1.64-41.97-2.17-61.64-0.64-19.68-1.04-38.05-1.39-53.79-0.51-27.56-0.86-47.08-0.95-51.54-5.06-4.76-11.69-10.59-19.71-16.78-67.27 89.33-65.24 179.2-26.17 392.55 9.74 53.15 34.94 220.67-2.74 359.45 69.47-105.95 134.83-334.79 142.34-517.78zm-18.53-281.92c-9.36-10.3-21.45-25.89-24.97-37.63l-43.9-18.69-39.83 15.34c-4.73 15.04-12.5 28.8-23.26 41.04 32.29 14.82 57.54 35.72 71.55 48.87 18.47-16.49 45.89-37.81 60.41-48.93zm-67.02-533.23c8.28-47.86 25.64-93.45 61.85-116.27-27.67-15.53-86.95-19.83-127.14-11.55-7.66 1.59-13.34 3.4-17.53 5.16 41.17 23.4 68.1 70.79 82.82 122.66zm-7.6501 104.76c1.39-88.48-36.52-214.83-126.58-221.1-48.17-3.37-72.24 12.62-83.47 24.96 33.31 5.09 67.49 19.78 94.29 41.81 25.66 21.12 55.96 57.99 58.86 115.23 22.58 10.53 41.71 23.65 56.9 39.1zm-37.75 463.76c-12.3-7.96-26.52-15.63-42.17-21.39l-10.49-3.8701c-4.68 5.52-9.41 11.63-14.17 18.25-5.53 7.6201-10.78 16.07-15.98 24.96-10.14 17.9-19.18 38.12-25.23 59.34-3.16 10.57-5.43 21.4-7.1 32.16-0.69 5.39-1.57 10.74-1.84 16.07-0.21 2.67-0.41 5.32-0.62 7.95-0.04 2.64-0.1 5.26-0.15 7.86-0.24 10.4 0.4 20.48 1.45 29.99 1.1 9.5 2.57 18.49 4.54 26.63 1.63 8.24 4.18 15.53 5.98 22.12 2.34 6.42 4.23 12.09 6.05 16.65 3.63 8.48 5.8 13.57 6.05 14.17-0.29-0.5801-2.77-5.53-6.89-13.8-2.1-4.46-4.33-10.03-7.07-16.35-2.21-6.52-5.22-13.72-7.36-21.96-2.49-8.12-4.52-17.14-6.23-26.75-1.65-9.63-2.91-19.91-3.3-30.6-0.11-2.68-0.21-5.38-0.32-8.09 0.04-2.72 0.09-5.46 0.14-8.22-0.04-5.53 0.52-11.09 0.9-16.72 1.07-11.22 2.76-22.6 5.39-33.78 4.97-22.45 13.14-44.14 22.66-63.55 4.89-9.63 9.88-18.86 15.24-27.23 5.3-8.41 10.64-16.17 15.99-23.06 5.25-6.9 10.41-12.97 15.26-18.21l-3.93-4.58c-6.16-7.19-11.15-16.53-15.22-26.76-146.52 135.96-123 219.08-73.02 395.33 11.66 41.13 24.88 87.76 37.45 140.76 26.63 112.32-0.17 206.22-41.05 257.89 23.17-5.51 44.63-17.84 63.13-36.44 40.51-40.74 63.5-107.79 63.06-183.96h0.01c-2.83-26.63-6.56-52.23-10.9-75.98-39.63-216.38-41.41-313.91 29.74-408.83zm-41.43-512.04c-5.37-43.7-29.53-72.46-50.21-89.48-36.45-29.98-87.88-44.84-127.96-36.95-18.31 3.6-35.09 13.37-52.87 23.72-21.63 12.59-43.8 25.49-69.55 27.42 22.06 15.44 48 21.47 57.27 23.23 19.74-11.74 44.59-20.07 72.56-19.11 32.34 1.1 79.51 15.4 124.97 75.39 2.57-2.99 5.01-5.94 7.27-8.81l4.32-5.52 6.78 1.74c9.5399 2.44 18.68 5.24 27.42 8.37zm-34.24 400.88c-3.37-12.89-5.66-25.84-7.18-37-3.02 1.57-6.3 3.41-10.15 5.45-4.68 2.64-9.98 6.02-15.71 9.59-5.49 3.97-11.79 7.85-17.84 12.8-3.08 2.42-6.29 4.83-9.48 7.42-3.11 2.69-6.28 5.44-9.52 8.24-3.3 2.73-6.35 5.83-9.53 8.88-3.12 3.11-6.52 6.03-9.49 9.42-3.06 3.31-6.15 6.64-9.24 9.98-3.07 3.38-5.84 7.02-8.8 10.54l-4.36 5.31-4.04 5.54c-2.67 3.72-5.33 7.42-7.96 11.09-4.65 7.72-9.85 15.04-13.6 22.81-2.02 3.82-3.99 7.58-5.93 11.27-1.65 3.81-3.27 7.55-4.84 11.18-3.43 7.1899-5.41 14.43-7.73 20.98-0.56 1.65-1.1 3.27-1.64 4.84-0.39 1.62-0.77 3.19-1.14 4.73-0.75 3.08-1.44 6-2.11 8.75-0.6 2.75-1.39 5.31-1.73 7.74-0.35 2.42-0.67 4.64-0.95 6.66-1.14 8.07-1.8 12.68-1.8 12.68s0.32-4.65 0.89-12.79c0.14-2.04 0.29-4.3 0.46-6.76 0.17-2.47 0.78-5.07 1.19-7.89 0.47-2.8199 0.96-5.8199 1.49-8.98 0.26-1.58 0.53-3.21 0.81-4.87 0.43-1.63 0.86-3.29 1.3-4.99 1.85-6.78 3.36-14.32 6.3-21.86 1.34-3.83 2.72-7.75 4.13-11.77 1.7-3.89 3.44-7.88 5.21-11.93 3.29-8.24 8.04-16.07 12.27-24.39 2.44-3.97 4.89-7.97 7.36-11.98l3.75-6.02 4.1-5.8c2.77-3.83 5.39-7.8 8.3-11.53 2.95-3.68 5.9-7.36 8.81-11.01 2.83-3.7401 6.12-7.01 9.13-10.48 3.07-3.4 6.03-6.86 9.25-9.94 3.16-3.16 6.27-6.26 9.31-9.3 3.13-2.95 6.31-5.72 9.35-8.48 5.97-5.63 12.29-10.21 17.82-14.82 5.83-4.26 11.09-8.17 16.06-11.48 5.06-3.17 9.57-6.15 13.18-8.23 1.32-0.73 2.5-1.38 3.6-1.99-9.16-0.82-17.86-2.78-25.99-5.79-55.38 27.52-129.21 90.05-161.2 179.8-25.83 72.47-19.99 149.04 17.34 227.58 84.07 176.88 111.53 287.62 86.39 348.5-4.92 11.92-11.86 21.93-20.75 29.99 44.85-2.1599 72.52-38.07 72.85-38.51l1.01 0.76c4.08-35.95 2.26-76.63-8.14-120.51-12.46-52.55-25.61-98.94-37.22-139.86-51.66-182.19-77.77-274.77 86.41-423.57zm-45.01-361.88c6.36-6.09 12.7-12.37 18.72-18.63-32.77-44.52-70.99-68.75-110.96-70.1-41.37-1.39-74.61 21.33-90.46 41.24-6.61 8.3-13.63 19.73-21.05 31.83-20.94 34.11-46.21 75.3-86.04 88.45 13.47 5.65 32.51 6.45 43.99 6.02 18.51-33.3 47.66-68.71 91.24-80.57 38.27-10.42 79.95-0.37 123.95 29.78 4.93-4.34 10.25-9.09 15.75-14.11-1.18-1.91-2.52-3.75-4.07-6.14-1.79-2.64-4.36-5.59-6.88-8.86-2.91-2.95-5.73-6.56-9.36-9.7-1.77-1.63-3.58-3.31-5.44-5.02-1.99-1.57-4.02-3.16-6.08-4.78-2.02-1.72-4.29-3.12-6.56-4.61-2.29-1.43-4.49-3.16-6.98-4.34-2.45-1.31-4.92-2.63-7.39-3.95-2.55-1.15-5.17-2.15-7.78-3.25-2.59-1.2-5.3-1.91-8.01-2.68-2.72-0.68-5.38-1.8-8.15-2.08-2.76-0.45-5.49-0.9-8.2-1.34-2.72-0.36-5.43-0.26-8.11-0.41-5.38-0.52-10.5 0.58-15.47 0.92-4.88 0.76-9.4 2.17-13.68 3.11-4.09 1.48-7.81 3.04-11.16 4.33-3.4 1.18-5.93 3.1-8.25 4.23-4.25 2.35-6.78 3.77-7.08 3.94 0.28-0.2 2.64-1.9 6.6-4.72 2.18-1.4 4.54-3.64 7.83-5.21 3.22-1.69 6.83-3.71 10.88-5.71 4.25-1.47 8.8-3.46 13.82-4.84 5.12-0.96 10.49-2.71 16.25-2.83 2.87-0.17 5.81-0.59 8.78-0.55 2.97 0.14 5.98 0.29 9.01 0.44 3.09-0.01 6.04 0.83 9.11 1.25 3.05 0.5 6.14 0.96 9.09 1.93 2.97 0.86 5.99 1.66 8.94 2.6 2.88 1.14 5.75 2.28 8.59 3.41 2.93 1.02 5.51 2.59 8.23 3.89 2.69 1.36 5.39 2.65 7.82 4.27 2.48 1.54 4.94 3.05 7.33 4.53 2.29 1.67 4.51 3.29 6.68 4.88 4.45 3.08 8.07 6.69 11.72 9.69 3.34 3.4 6.49 6.28 9.13 9.33 1.29 1.53 2.56 3.01 3.7 4.36zm-14.35 285.48c-8.85-6.57-16.51-14.77-22.65-24.46-1.25 0.39-2.55 0.83-3.9 1.34-3.71 1.23-8.31 3.09-13.61 5.25-5.23 2.28-11.1 4.99-17.4 8.22-6.27 3.29-13 7.02-19.94 11.34-6.94 4.29-14.14 9.07-21.35 14.37-7.24 5.26-14.54 10.98-21.7 17.12-7.23 6.06-14.2 12.65-21.07 19.37-13.59 13.58-26.19 28.21-36.62 42.96-5.26 7.34-9.97 14.7-14.05 21.91-4.21 7.16-7.53 14.26-10.49 20.87-2.78 6.68-5.08 12.93-6.66 18.61-1.64 5.67-2.66 10.72-3.32 14.91-0.65 4.2-0.98 7.53-1.03 9.81-0.13 2.28-0.2 3.49-0.2 3.49s-0.01-1.21-0.04-3.49c-0.11-2.3 0-5.65 0.35-9.92 0.38-4.26 1.05-9.43 2.32-15.28 1.21-5.86 3.09-12.35 5.45-19.34 2.55-6.91 5.44-14.39 9.21-21.97 3.66-7.64 7.94-15.48 12.79-23.34 9.62-15.8 21.47-31.65 34.46-46.55 6.58-7.38 13.28-14.66 20.31-21.43 6.95-6.84 14.1-13.29 21.24-19.27 7.12-6.02 14.29-11.52 21.26-16.54 6.96-5.02 13.79-9.45 20.2-13.41 6.46-3.88 12.54-7.23 18.01-10.07 5.53-2.72 10.39-5.07 14.66-6.83 0.7-0.3101 1.31-0.57 1.94-0.84-2.38-6.57-4.07-13.4-5.05-20.38-72.17 13.23-176.23 90.23-225.67 193.46-26.63 55.59-45.99 138.56 12.94 218.21 147.48 199.32 163.55 282.99 124.28 333.02 49.93-8.01 65.01-39.52 65.18-39.89l2.24 1.03c-13.89-55.71-41.34-126.55-82.65-213.47-39.87-83.87-45.98-165.96-18.17-243.98 31.64-88.81 101.62-152.59 158.73-184.83zm-20.67-140.1l-2.83-8.22c-136.86-6.83-157.65 31.16-212.67 131.76-5.11 9.36-10.5 19.19-16.27 29.54-16.25 29.14-47.58 64.09-86.72 74.82-13.01 3.56-25.88 3.9901-38.09 1.35 4.7 7.78 11.93 14.41 21.34 19.41 23.7 12.6 55.48 12.48 80.16 0 50.81-95.54 155.61-180.41 238.05-193.8 0.47-7.83 1.78-15.72 3.9-23.54-4.1-0.99-9.55-1.88-16.08-2.31-16.74-1.23-40.14 0.84-62.33 7.6-11.07 3.41-21.88 7.87-31.27 13.43-4.76 2.67-9.04 5.76-13.03 8.79-3.89 3.17-7.42 6.36-10.39 9.61-2.98 3.22-5.46 6.43-7.49 9.39-0.98 1.5099-1.89 2.93-2.73 4.25-0.73 1.37-1.41 2.64-2.01 3.78-1.31 2.27-1.9 4.24-2.52 5.5-0.47 1.13-0.76 1.8-0.83 1.95 0.05-0.16 0.26-0.86 0.61-2.03 0.46-1.32 0.84-3.38 1.89-5.79 0.48-1.22 1.02-2.58 1.61-4.06 0.7-1.42 1.47-2.97 2.28-4.62 1.73-3.25 3.9-6.83 6.61-10.51 2.69-3.69 5.97-7.42 9.66-11.18 3.8-3.63 7.93-7.37 12.59-10.74 9.2-6.94 20.03-12.91 31.31-17.83 22.64-9.77 47.14-14.86 66.18-15.63 9.12-0.43 16.97 0.11 22.87 1.11 1.85-4.0599 3.89-8.0899 6.2-12.03zm-10.32-30l-6.64-19.33c-0.03-0.05-0.06-0.09-0.08-0.13-1.52-2.64-5.72-7.05-12.22-11.22-12.81-8.59-33.97-16.47-55.76-17.88-5.44-0.25-10.93-0.31-16.26 0.29-5.35 0.53-10.58 1.5-15.48 3.02-4.96 1.38-9.49 3.47-13.67 5.69-2.12 1.08-3.96 2.47-5.89 3.64-1.82 1.31-3.47 2.71-5.13 3.99-3.09 2.81-5.82 5.56-7.94 8.26-2.3 2.58-3.74 5.23-5.24 7.23-2.44 4.36-3.83 6.84-3.83 6.84s1.09-2.65 3.02-7.28c1.25-2.17 2.42-5.05 4.45-7.95 1.84-3.03 4.31-6.18 7.2-9.5 1.56-1.54 3.14-3.22 4.9-4.83 1.87-1.47 3.69-3.18 5.79-4.6 4.17-2.9 8.83-5.73 13.99-7.86 5.12-2.27 10.68-3.99 16.43-5.26 5.74-1.34 11.7-1.99 17.67-2.4 20.8-1.04 41.51 3.03 57.64 9.66l-2.92-8.5 5.84-4.73c0.17-0.14 4.77-3.86 12.02-9.99-36.76-23.98-70.88-31.93-101.48-23.61-44.12 12.01-71.71 54.47-87.09 87.98-4.63 10.1-9 21.16-13.23 31.86-17.86 45.22-37.81 95.71-88.53 95.72h-0.55c7.73 9.32 17.81 16.06 29.52 19.59 15.52 4.65 32.09 2.63 44.84-5.25 51.74-94.32 80.63-138.52 218.63-133.45z" fill="url(#aj)"/>
 <linearGradient id="aq" x1="668.44" x2="795.56" y1="494.17" y2="494.17" gradientUnits="userSpaceOnUse">
  <stop stop-color="#9C420F" offset="0"/>
  <stop stop-color="#EE6321" offset=".1576"/>
  <stop stop-color="#EF6720" offset=".2028"/>
  <stop stop-color="#F0751D" offset=".2526"/>
  <stop stop-color="#F38B18" offset=".3045"/>
  <stop stop-color="#F6AA11" offset=".3579"/>
  <stop stop-color="#FBD108" offset=".412"/>
  <stop stop-color="#FFF101" offset=".45"/>
  <stop stop-color="#FFF101" offset=".55"/>
  <stop stop-color="#FEEC02" offset=".5578"/>
  <stop stop-color="#F9BB0D" offset=".6334"/>
  <stop stop-color="#F49516" offset=".705"/>
  <stop stop-color="#F1791C" offset=".7708"/>
  <stop stop-color="#EF6920" offset=".8288"/>
  <stop stop-color="#EE6321" offset=".8727"/>
  <stop stop-color="#A1420E" offset="1"/>
 </linearGradient>
 <path d="m795.56 421.14c-0.33 0.08-0.66 0.16-0.99 0.24-20.79 5.46-37.29 30.52-59.63 38.09-12.61 4.28-24.22 5-33.86 3.64l1.1 0.64c-24.13 16.7-22.35 105.75-27.83 112-13.53-63.45 0.4-128.02 0.4-128.02l0.07 0.04c-0.37-1.15-0.58-2.3-0.47-3.43 2.1101-21.49 59.55-44.65 121.21-23.2z" fill="url(#aq)"/>
 <linearGradient id="ar" x1="441.35" x2="568.59" y1="494.17" y2="494.17" gradientUnits="userSpaceOnUse">
  <stop stop-color="#9C420F" offset="0"/>
  <stop stop-color="#EE6321" offset=".1576"/>
  <stop stop-color="#EF6720" offset=".2028"/>
  <stop stop-color="#F0751D" offset=".2526"/>
  <stop stop-color="#F38B18" offset=".3045"/>
  <stop stop-color="#F6AA11" offset=".3579"/>
  <stop stop-color="#FBD108" offset=".412"/>
  <stop stop-color="#FFF101" offset=".45"/>
  <stop stop-color="#FFF101" offset=".55"/>
  <stop stop-color="#FEEC02" offset=".5578"/>
  <stop stop-color="#F9BB0D" offset=".6334"/>
  <stop stop-color="#F49516" offset=".705"/>
  <stop stop-color="#F1791C" offset=".7708"/>
  <stop stop-color="#EF6920" offset=".8288"/>
  <stop stop-color="#EE6321" offset=".8727"/>
  <stop stop-color="#A1420E" offset="1"/>
 </linearGradient>
 <path d="m562.57 445.81s13.53 66.49 0 129.94c-5.49-6.25-3.7-95.3-27.83-112l0.97-0.63c-9.61 1.34-21.18 0.61-33.74-3.65-22.69-7.69-39.35-33.43-60.62-38.33 61.67-21.45 119.11 1.71 121.22 23.2 0.05 0.5-0.03 1-0.07 1.51l0.07-0.04z" fill="url(#ar)"/>
 <linearGradient id="as" x1="986.63" x2="986.63" y1="698.14" y2="432.69" gradientUnits="userSpaceOnUse">
  <stop stop-color="#FBD437" offset="0"/>
  <stop stop-color="#ED1C24" offset=".5056"/>
  <stop stop-color="#F58220" offset="1"/>
 </linearGradient>
 <path d="m1155.3 681.44c-0.0499 0.04-0.08 0.08-0.13 0.11-19.09 15.85-58 20.88-93.37 12.76-49.28-97.08-151.27-180.67-231.71-190.51-0.13-8.02-1.04-16.18-2.8-24.37 0.55-0.21 1.11-0.42 1.69-0.61 1.9-0.27 3.77-0.96 6.77-1.41 3.19-0.22 6.69-0.99 10.82-0.81 2.04-0.01 4.17-0.01 6.37-0.03 2.24 0.19 4.55 0.38 6.92 0.57 4.78 0.2 9.77 1.38 15.01 2.1 5.12 1.3 10.58 2.18 15.88 4.01 2.67 0.84 5.4 1.6 8.09 2.53l7.97 3.09c2.72 0.95 5.28 2.2 7.85 3.44 2.56 1.25 5.19 2.38 7.67 3.72 4.79 2.92 9.89 5.37 14.14 8.66 2.22 1.56 4.38 3.09 6.51 4.59 1.97 1.7 3.89 3.36 5.77 4.97 3.93 3.11 6.94 6.7 9.91 9.89 3.15 3.07 5.13 6.55 7.28 9.4 1 1.46 2.04 2.79 2.84 4.1 0.7 1.38 1.35 2.63 1.94 3.77 2.36 4.58 3.7 7.2 3.7 7.2s-1.04-2.7599-2.8701-7.59c-0.46-1.22-0.97-2.57-1.53-4.04-0.66-1.41-1.53-2.86-2.39-4.46-1.83-3.12-3.49-6.96-6.32-10.44-2.66-3.61-5.39-7.71-9.05-11.35-1.76-1.91-3.57-3.86-5.42-5.86-2.03-1.8-4.1-3.66-6.21-5.53-4.09-3.97-9.03-7.1-13.76-10.76-2.45-1.7-5.05-3.2-7.6-4.82-2.55-1.61-5.12-3.25-7.84-4.58l-8.08-4.22c-2.73-1.31-5.52-2.45-8.27-3.67-5.44-2.59-11.15-4.23-16.55-6.25-5.57-1.45-10.86-3.32-16.16-4.19-2.64-0.51-5.21-1.01-7.68-1.5-2.55-0.29-5.01-0.56-7.37-0.83-4.69-0.71-9.28-0.4-13.25-0.52-4.15 0.12-8.4 0.91-11.59 1.35-0.39 0.09-0.71 0.17-1.06 0.26-1.07-2.84-2.21-5.68-3.48-8.49 0.8-3.83 2.14-10.49 3.69-18.43 121.64 0.92 142.22 37.95 201.65 145.29 3.71 6.7 7.56 13.66 11.58 20.87 21.41 38.37 80.97 84.08 120.02 82.61 0.1402-1e-4 0.2702-0.0101 0.4202-0.0201z" fill="url(#as)"/>
 <linearGradient id="at" x1="950.16" x2="950.16" y1="554.25" y2="327.08" gradientUnits="userSpaceOnUse">
  <stop stop-color="#FBD437" offset="0"/>
  <stop stop-color="#ED1C24" offset=".5056"/>
  <stop stop-color="#F58220" offset="1"/>
 </linearGradient>
 <path d="m1075.3 550.55c2.22 0.81 4.47 1.42 6.7599 1.82-12.82 4.16-28.71 0.83-48.78-4.15l-2.27-0.56c-51.12-91.4-82.99-134.44-205.31-136.36 0.77-4.31 1.52-8.62 2.22-12.83 0.09-0.14 0.16-0.2 0.22-0.3 0.07-0.12 0.1-0.24 0.18-0.42 0.24-0.31 0.49-0.63 0.77-0.97 0.97-1.4 2.79-3.16 5.05-5.09 2.35-1.9 5.25-3.99 8.73-6 13.76-8.25 35.77-15.57 58.31-16.54 5.61-0.1 11.29-0.13 16.79 0.6 5.52 0.58 10.9 1.66 15.98 3.2 5.08 1.49 9.85 3.47 14.17 5.77 4.34 2.26 8.15 4.93 11.54 7.6 3.29 2.77 6.19 5.51 8.47 8.21 2.5 2.54 4.06 5.24 5.68 7.23 2.73 4.32 4.22 6.87 4.22 6.87s-1.17-2.68-3.43-7.34c-1.39-2.17-2.68-5.11-4.91-7.98-2.02-3.03-4.67-6.17-7.77-9.46-3.2-3.19-6.89-6.46-11.22-9.38-4.3-2.96-9.15-5.67-14.43-7.89-5.26-2.28-10.93-4.11-16.81-5.43-5.88-1.46-11.97-2.14-18.08-2.72-24.56-1.69-49.17 3.27-66.71 11.13-1.09 0.47-2.06 1-3.1 1.5l0.4-5.86-5.14-3.45c-2.03-1.36-4.98-3.78-8.52-6.91 39.35-24.98 75.46-33.16 107.46-24.28 32.34 8.98 59.45 35.51 78.37 76.74 6.42 13.98 11.72 31.39 17.34 49.82 12.42 40.76 25.27 82.91 53.82 93.43z" fill="url(#at)"/>
 <linearGradient id="au" x1="927.84" x2="927.84" y1="1267" y2="525.18" gradientUnits="userSpaceOnUse">
  <stop stop-color="#FBD437" offset="0"/>
  <stop stop-color="#ED1C24" offset=".5056"/>
  <stop stop-color="#F58220" offset="1"/>
 </linearGradient>
 <path d="m1046.7 712.2c26.87 57.1 46.14 141.9-14.58 221.67-149.96 197.04-164.62 282.39-124.41 333.14-40.87-6.53-58.27-28.69-63.4-36.85 12.61-63.5 45.05-144.64 94.81-234.39 34.57-62.36 41.1-128.18 19.41-195.66-28.65-89.11-106.18-168.66-175.16-208.59 11.69-6.69 21.59-16 29.42-27.53 3.6 1.08 7.91 2.6 12.87 4.39 5.32 2.06 11.3 4.52 17.73 7.48 6.4 3.04 13.28 6.48 20.39 10.5 7.11 4.01 14.51 8.4901 21.94 13.47 7.45 4.96 14.98 10.37 22.39 16.2 7.48 5.76 14.72 12.06 21.86 18.48 14.14 13 27.34 27.09 38.37 41.4 5.57 7.11 10.58 14.27 14.96 21.31 4.4901 6.97 8.11 13.93 11.35 20.41 3.05 6.56 5.6 12.71 7.42 18.32 1.88 5.58 3.11 10.6 3.94 14.76 0.82 4.16 1.29 7.48 1.44 9.75 0.22 2.27 0.35 3.49 0.35 3.49s-0.04-1.22-0.11-3.5c0.01-2.29-0.23-5.64-0.76-9.89-0.56-4.24-1.45-9.38-2.97-15.17-1.44-5.81-3.59-12.21-6.24-19.1-2.83-6.8-6.03-14.16-10.12-21.57-3.96-7.47-8.58-15.13-13.75-22.79-10.26-15.38-22.77-30.72-36.37-45.07-6.87-7.1-13.88-14.1-21.18-20.57-7.23-6.54-14.64-12.68-22.03-18.37-7.36-5.71-14.75-10.91-21.92-15.63-7.17-4.73-14.17-8.8701-20.75-12.56-6.61-3.61-12.83-6.6899-18.41-9.31-3.92-1.73-7.39-3.2-10.67-4.53 2.67-6.62 4.65-13.56 5.9-20.71 75.99 9.49 173.75 92.41 218.28 187.02z" fill="url(#au)"/>
 <linearGradient id="av" x1="904.05" x2="904.05" y1="378.97" y2="209.45" gradientUnits="userSpaceOnUse">
  <stop stop-color="#FBD437" offset="0"/>
  <stop stop-color="#ED1C24" offset=".5056"/>
  <stop stop-color="#F58220" offset="1"/>
 </linearGradient>
 <path d="m944.69 279.46c-0.29-0.19-2.75-1.81-6.87-4.52-2.26-1.32-4.75-3.47-8.12-4.97-3.3-1.62-7.02-3.55-11.16-5.48-4.31-1.45-8.94-3.31-14.02-4.75-2.58-0.56-5.23-1.14-7.94-1.73-1.36-0.3-2.74-0.59-4.13-0.88-1.42-0.14-2.85-0.28-4.28-0.41-2.91-0.28-5.85-0.55-8.83-0.82-3 0.05-6.04 0.11-9.1 0.17-3.09-0.06-6.15 0.36-9.23 0.78-3.07 0.49-6.26 0.61-9.28 1.43l-9.15 2.16c-3.03 0.82-5.94 1.95-8.89 2.92-2.98 0.91-5.81 2.11-8.5699 3.41-2.75 1.3-5.61 2.36-8.1801 3.84-2.6 1.46-5.16 2.89-7.65 4.29-2.52 1.39-4.75 3.12-7.05 4.63-4.66 2.93-8.5 6.49-12.3 9.5-3.56 3.34-6.74 6.37-9.52 9.43-2.65 3.19-5.23 6.18-6.84 8.42-0.27 0.4-0.47 0.7-0.72 1.07-9.9-11.71-17.39-22.17-18.49-27.64 49.41-77.69 120.96-73.73 149.63-68.33 51.49 9.69 94.01 44.73 101.09 83.31 6.83 37.14 20.45 62.02 40.49 73.91 2.75 1.64 5.48 2.93 8.15 3.95-13.15 4.7-29.76 5.87-40.18 5.82-20.98-36.17-49.03-59.91-82.08-69.08-39.36-10.92-82.8-0.85-129.17 29.8-4.81-4.79-9.85-9.99-14.79-15.29 0.39-0.73 1.64-3.11 3.68-6.97 1.23-2.17 2.72-4.1 4.41-6.78 1.85-2.57 4.36-5.55 7.01-8.7 2.97-2.9 5.91-6.39 9.7-9.39 1.86-1.53 3.64-3.3 5.72-4.76 2.07-1.49 4.19-3.01 6.35-4.55 2.14-1.6 4.56-2.78 6.9-4.23 2.34-1.46 4.75-2.82 7.33-3.93 2.55-1.15 5.07-2.5 7.72-3.54l8.08-2.88c2.68-1.09 5.52-1.47 8.29-2.25 2.78-0.7 5.56-1.42 8.38-1.67 2.83-0.37 5.63-0.75 8.4-1.11 2.8-0.05 5.56-0.1 8.28-0.15 1.37-0.03 2.72-0.05 4.07-0.07 1.33 0.13 2.65 0.26 3.96 0.39 2.62 0.27 5.2 0.54 7.7 0.8 4.96 0.82 9.58 2.11 13.94 3.04 4.19 1.42 8 2.88 11.42 4.11 3.49 1.09 6.12 2.92 8.51 3.98 4.3901 2.23 7.0202 3.57 7.3301 3.72z" fill="url(#av)"/>
 <linearGradient id="aw" x1="849.76" x2="849.76" y1="274.58" y2="134.42" gradientUnits="userSpaceOnUse">
  <stop stop-color="#FBD437" offset="0"/>
  <stop stop-color="#ED1C24" offset=".5056"/>
  <stop stop-color="#F58220" offset="1"/>
 </linearGradient>
 <path d="m933.8 158.82c18.73 9.98 37.95 20.22 63.29 23.29-21.56 19.34-48.71 19.07-55.34 18.68-10.67-4.3-21.99-7.67-33.78-9.89-67.55-12.71-130.69 15.56-170.11 75.58-7.08 0.71-19.86 2.67-35.44 8.1 7.61-51.51 34.23-84.12 56.46-102.88 31.51-26.59 73.31-40.59 109-36.6 27.12 3.05 45.97 13.09 65.92 23.72z" fill="url(#aw)"/>
 <linearGradient id="ax" x1="839.91" x2="839.91" y1="1372.5" y2="601.59" gradientUnits="userSpaceOnUse">
  <stop stop-color="#FBD437" offset="0"/>
  <stop stop-color="#ED1C24" offset=".5056"/>
  <stop stop-color="#F58220" offset="1"/>
 </linearGradient>
 <path d="m889.08 846.81c-0.05-0.52-0.5-4.93-1.24-12.29-0.41-3.93-0.75-8.75-1.9-14.13-1.12-5.4-1.8199-11.63-3.62-18.2-0.86-3.29-1.76-6.72-2.69-10.27-0.47-1.78-0.95-3.59-1.43-5.42-0.61-1.79-1.23-3.62-1.86-5.47-1.27-3.7-2.57-7.51-3.9-11.39-1.31-3.91-3.15-7.69-4.75-11.65-3.11-7.99-7.28-15.8-11.33-23.85-2-4.05-4.5-7.84-6.76-11.81-2.3-3.94-4.6-7.92-7.26-11.65-2.58-3.8-5.16-7.6-7.73-11.39-2.79-3.63-5.57-7.2401-8.34-10.83-2.67-3.67-5.72-6.98-8.62-10.35-2.96-3.3199-5.7-6.79-8.81-9.8-3.04-3.1-6.02-6.14-8.94-9.12-2.99-2.92-6.11-5.59-9.04-8.29-5.78-5.52-11.98-9.91-17.37-14.37-5.76-4.04-10.89-7.83-15.86-10.92-5.02-2.96-9.53-5.83-13.08-7.67-1.68-0.86-3.18-1.62-4.51-2.29 0.43-4.4 0.75-8.36 0.96-11.62 5.46-0.4 10.67-1.3 15.76-2.44 56.38 27.88 148.81 103.83 181.36 205.09 19.8 61.6 13.83 121.72-17.75 178.69-85.96 155.04-120.67 282.73-95.21 350.33 5.73 15.23 14.35 27.54 25.74 36.82-36.2 0.63-73.75-28.84-83.24-36.82-3.1-32.48-0.69-69.23 9.82-109.78 10.31-39.78 20.96-76.7 30.34-109.27 53.73-186.36 83.51-290.22-77.54-447.6 3.11-10.68 5.37-21.66 7-31.87 3.19 1.47 6.54 3.3 10.62 5.29 4.55 2.37 9.67 5.6 15.24 8.91 5.3 3.78 11.42 7.42 17.22 12.22 2.94 2.33 6.07 4.62 9.1 7.16 2.97 2.62 6.01 5.29 9.1 8.01 3.19 2.63 6.01 5.74 9.07 8.69 3.01 3.01 6.17 5.96 8.98 9.26 2.9 3.25 5.82 6.5099 8.76 9.79 2.73 3.45 5.48 6.92 8.23 10.39 2.84 3.41 5.33 7.07 7.83 10.71 2.46 3.66 5.18 7.16 7.39 10.92 4.5 7.5 9.12 14.8 12.72 22.34 1.84 3.74 3.94 7.31 5.49 11.02 1.58 3.7 3.13 7.33 4.64 10.85 0.76 1.77 1.5 3.52 2.23 5.23 0.61 1.77 1.2 3.5099 1.79 5.21 1.1801 3.42 2.31 6.74 3.41 9.91 2.25 6.34 3.39 12.42 4.9 17.69 1.54 5.27 2.23 9.99 2.9301 13.87 1.2799 7.2799 2.0599 11.64 2.1499 12.16z" fill="url(#ax)"/>
 <linearGradient id="z" x1="755.41" x2="755.41" y1="1470.5" y2="691.08" gradientUnits="userSpaceOnUse">
  <stop stop-color="#FBD437" offset="0"/>
  <stop stop-color="#ED1C24" offset=".5056"/>
  <stop stop-color="#F58220" offset="1"/>
 </linearGradient>
 <path d="m779.31 1027.7c0.17-0.37 2.45-5.45 6.33-14.11 1.91-4.55 3.91-10.2 6.38-16.63 1.94-6.6 4.65-13.93 6.44-22.24 2.15-8.23 3.8-17.32 5.11-26.99 1.25-9.69 2.08-20.01 2.03-30.71-0.01-2.69-0.02-5.39-0.02-8.1-0.16-2.72-0.32-5.45-0.48-8.2-0.2-5.53-0.99-11.06-1.61-16.67-1.52-11.16-3.69-22.47-6.77-33.53-5.91-22.23-14.98-43.55-25.3-62.55-5.29-9.42-10.66-18.43-16.36-26.57-5.64-8.18-11.31-15.71-16.94-22.38-10.28-12.41-20.16-21.97-28.09-28.63l0.29-0.34c4.58-5.35 8.47-11.86 11.81-19 144.33 144.57 117.37 238.24 65.08 419.63-9.43 32.7-20.11 69.77-30.49 109.82-29.44 113.54 0.77 200.56 42 249.96-63.18-14.24-103.2-76.69-109.16-173.1 23.94-90.07 40.43-187.71 44.07-276.45 3.34-81.42-3.33-188.17-51.93-246.26 18.2-14.46 34.35-26.59 34.64-26.81l2.99-2.24c1.73 1.73 3.47 3.52 5.24 5.42 5.63 5.91 11.39 12.68 17.19 20.09 5.85 7.37 11.44 15.6 17 24.27 10.88 17.46 20.76 37.29 27.69 58.24 3.6 10.43 6.31 21.15 8.43 31.83 0.91 5.36 2.01 10.67 2.51 15.99 0.31 2.65 0.63 5.29 0.95 7.92 0.16 2.63 0.31 5.24 0.47 7.84 0.6801 10.38 0.47 20.48-0.1899 30.03-0.71 9.53-1.8 18.57-3.44 26.79-1.27 8.31-3.52 15.68-5.05 22.36-2.07 6.5-3.72 12.25-5.35 16.88-3.3701 8.9199-5.3501 14.13-5.4702 14.44z" fill="url(#z)"/>
 <linearGradient id="aa" x1="615.02" x2="615.02" y1="597.2" y2="275.57" gradientUnits="userSpaceOnUse">
  <stop stop-color="#FBD437" offset="0"/>
  <stop stop-color="#ED1C24" offset=".5056"/>
  <stop stop-color="#F58220" offset="1"/>
 </linearGradient>
 <path d="m809.64 375.13c-1.34 11.9-4.66 30.53-7.66 46.26l-7.41-0.01c0.33-0.08 0.66-0.16 0.99-0.24-61.66-21.45-119.1 1.71-121.21 23.2-0.11 1.13 0.1 2.28 0.47 3.43l-0.07-0.04s-13.93 64.57-0.4 128.02v3.35h-31.92l-17.43 18.1-21.44-18.1h-40.96l-0.03-3.35c13.53-63.45 0-129.94 0-129.94l-0.07 0.04c0.04-0.51 0.1201-1.01 0.07-1.51-2.11-21.49-59.55-44.65-121.22-23.2l-1.42 0.49-19.53-56.8c16.62-13.78 64.37-54.38 93.3-89.26 49.55 13.87 86.36 37.99 106.72 70l8.1 12.73 9.36-11.83c34.95-44.14 78.57-55.25 97.05-58.02 10.46 28.89 58.66 72.73 74.71 86.68z" fill="url(#aa)"/>
 <linearGradient id="ab" x1="722.23" x2="722.23" y1="689.9" y2="421.38" gradientUnits="userSpaceOnUse">
  <stop stop-color="#FBD437" offset="0"/>
  <stop stop-color="#ED1C24" offset=".5056"/>
  <stop stop-color="#F58220" offset="1"/>
 </linearGradient>
 <path d="m794.57 421.38l7.41 0.01c-3 15.73-5.68 28.56-5.74 28.83l-0.75 3.57 1.58 3.27c15.69 32.67 15.52 67.36-0.47 92.78-13.42 21.32-36.31 33.07-64.47 33.07l-11.83-0.13-0.25 10.6c-0.45 19.04-5.2401 70.34-21.5 96.52l-62.82-26.74v-48.48l40.21-35.58h-1.59v-3.35c5.48-6.25 3.7-95.3 27.83-112l-1.1-0.64c9.64 1.36 21.25 0.64 33.86-3.64 22.34-7.5699 38.84-32.63 59.63-38.09z" fill="url(#ab)"/>
 <linearGradient id="ac" x1="730.78" x2="730.78" y1="312" y2="94.075" gradientUnits="userSpaceOnUse">
  <stop stop-color="#FBD437" offset="0"/>
  <stop stop-color="#ED1C24" offset=".5056"/>
  <stop stop-color="#F58220" offset="1"/>
 </linearGradient>
 <path d="m820.97 116.94c-26.89 6.18-53.4 19.36-75.93 38.37-37.83 31.92-60.85 77.57-65.35 129.08-12.66 6.56-26.07 15.48-39.1 27.61 0.98-103.37 14.12-206.11 90.49-216.25 52.63-6.98 78.48 9.43 89.89 21.19z" fill="url(#ac)"/>
 <linearGradient id="ad" x1="629.12" x2="629.12" y1="1537.8" y2="785.84" gradientUnits="userSpaceOnUse">
  <stop stop-color="#FBD437" offset="0"/>
  <stop stop-color="#ED1C24" offset=".5056"/>
  <stop stop-color="#F58220" offset="1"/>
 </linearGradient>
 <path d="m665.02 788.16c35.4 41.89 51.71 121.67 47.18 231.9-7.51 182.99-72.87 411.83-142.34 517.78 37.68-138.78 12.48-306.3 2.74-359.45-39.07-213.35-41.1-303.22 26.17-392.55 8.02 6.19 14.65 12.02 19.71 16.78 0.09 4.46 0.44 23.98 0.95 51.54 0.35 15.74 0.75 34.11 1.39 53.79 0.53 19.67 1.26 40.65 2.17 61.64 0.46 10.48 0.75 20.97 1.35 31.29 0.56 10.32 1.12 20.48 1.65 30.3 0.55 9.83 0.98 19.33 1.79 28.33 0.71 9 1.38 17.5 2 25.35s1.1 15.04 2.05 21.39c0.8 6.35 1.5 11.88 2.08 16.43 1.16 9.1 1.82 14.3 1.82 14.3s-0.33-5.23-0.9-14.4c-0.29-4.5699-0.63-10.12-1.03-16.49-0.53-6.36-0.56-13.56-0.67-21.42-0.12-7.85-0.25-16.36-0.38-25.36-0.23-8.9801-0.06-18.48 0.03-28.31 0.09-9.81 0.18-19.95 0.28-30.26 0.0601-10.31 0.44-20.79 0.66-31.26 0.42-20.93 1.03-41.87 1.76-61.5 0.62-19.63 1.4-37.94 2.04-53.64 0.89-19.48 1.6-34.92 2-43.84l0.96-0.92c6.37-6.1301 15.17-13.7 24.54-21.42z" fill="url(#ad)"/>
 <linearGradient id="ae" x1="627.69" x2="627.69" y1="787.07" y2="681.82" gradientUnits="userSpaceOnUse">
  <stop stop-color="#FBD437" offset="0"/>
  <stop stop-color="#ED1C24" offset=".5056"/>
  <stop stop-color="#F58220" offset="1"/>
 </linearGradient>
 <path d="m668.7 700.51c3.52 11.74 15.61 27.33 24.97 37.63-14.52 11.12-41.94 32.44-60.41 48.93-14.01-13.15-39.26-34.05-71.55-48.87 10.76-12.24 18.53-26 23.26-41.04l39.83-15.34 43.9 18.69z" fill="url(#ae)"/>
 <linearGradient id="af" x1="616.17" x2="616.17" y1="204.91" y2="72.949" gradientUnits="userSpaceOnUse">
  <stop stop-color="#FBD437" offset="0"/>
  <stop stop-color="#ED1C24" offset=".5056"/>
  <stop stop-color="#F58220" offset="1"/>
 </linearGradient>
 <path d="m688.5 88.636c-36.21 22.82-53.57 68.41-61.85 116.27-14.72-51.87-41.65-99.26-82.82-122.66 4.19-1.76 9.87-3.57 17.53-5.16 40.19-8.28 99.47-3.98 127.14 11.55z" fill="url(#af)"/>
 <linearGradient id="ag" x1="514" x2="514" y1="309.67" y2="88.109" gradientUnits="userSpaceOnUse">
  <stop stop-color="#FBD437" offset="0"/>
  <stop stop-color="#ED1C24" offset=".5056"/>
  <stop stop-color="#F58220" offset="1"/>
 </linearGradient>
 <path d="m492.42 88.566c90.06 6.27 127.97 132.62 126.58 221.1-15.19-15.45-34.32-28.57-56.9-39.1-2.9-57.24-33.2-94.11-58.86-115.23-26.8-22.03-60.98-36.72-94.29-41.81 11.23-12.34 35.3-28.33 83.47-24.96z" fill="url(#ag)"/>
 <linearGradient id="ah" x1="521.9" x2="521.9" y1="691.49" y2="421.14" gradientUnits="userSpaceOnUse">
  <stop stop-color="#FBD437" offset="0"/>
  <stop stop-color="#ED1C24" offset=".5056"/>
  <stop stop-color="#F58220" offset="1"/>
 </linearGradient>
 <path d="m614.28 617.73v45.16l-74.31 28.6c-16.59-26.28-22.31-78.82-23.11-98.3l-0.43-10.41-11.53 0.13c-28.82 0-52.77-13.56-65.7-37.19-15.09-27.56-12.41-62.29 7.16-92.88l2.8-4.37-9.23-26.84 1.42-0.49c21.27 4.9 37.93 30.64 60.62 38.33 12.56 4.26 24.13 4.99 33.74 3.65l-0.97 0.63c24.13 16.7 22.34 105.75 27.83 112l0.03 3.35c15.79 10.19 38.9 28.36 51.68 38.63z" fill="url(#ah)"/>
 <linearGradient id="ai" x1="491.34" x2="491.34" y1="1478.6" y2="684.66" gradientUnits="userSpaceOnUse">
  <stop stop-color="#FBD437" offset="0"/>
  <stop stop-color="#ED1C24" offset=".5056"/>
  <stop stop-color="#F58220" offset="1"/>
 </linearGradient>
 <path d="m487.57 1024.3c-0.25-0.6-2.42-5.6901-6.05-14.17-1.82-4.56-3.71-10.23-6.05-16.65-1.8-6.59-4.35-13.88-5.98-22.12-1.97-8.14-3.44-17.13-4.54-26.63-1.05-9.51-1.69-19.59-1.45-29.99 0.05-2.6 0.11-5.22 0.15-7.86 0.21-2.63 0.41-5.28 0.62-7.95 0.27-5.33 1.15-10.68 1.84-16.07 1.67-10.76 3.94-21.59 7.1-32.16 6.05-21.22 15.09-41.44 25.23-59.34 5.2-8.89 10.45-17.34 15.98-24.96 4.76-6.62 9.49-12.73 14.17-18.25l10.49 3.8701c15.65 5.7599 29.87 13.43 42.17 21.39-71.15 94.92-69.37 192.45-29.74 408.83 4.34 23.75 8.07 49.35 10.9 75.98h-0.01c0.44 76.17-22.55 143.22-63.06 183.96-18.5 18.6-39.96 30.93-63.13 36.44 40.88-51.67 67.68-145.57 41.05-257.89-12.57-53-25.79-99.63-37.45-140.76-49.98-176.25-73.5-259.37 73.02-395.33 4.07 10.23 9.06 19.57 15.22 26.76l3.93 4.58c-4.85 5.24-10.01 11.31-15.26 18.21-5.35 6.89-10.69 14.65-15.99 23.06-5.36 8.37-10.35 17.6-15.24 27.23-9.52 19.41-17.69 41.1-22.66 63.55-2.63 11.18-4.32 22.56-5.39 33.78-0.38 5.63-0.94 11.19-0.9 16.72-0.05 2.76-0.1 5.5-0.14 8.22 0.11 2.71 0.21 5.41 0.32 8.09 0.39 10.69 1.65 20.97 3.3 30.6 1.71 9.61 3.74 18.63 6.23 26.75 2.14 8.24 5.15 15.44 7.36 21.96 2.74 6.32 4.97 11.89 7.07 16.35 4.12 8.2699 6.6 13.22 6.89 13.8z" fill="url(#ai)"/>
 <linearGradient id="ak" x1="389.53" x2="389.53" y1="265.61" y2="132.86" gradientUnits="userSpaceOnUse">
  <stop stop-color="#FBD437" offset="0"/>
  <stop stop-color="#ED1C24" offset=".5056"/>
  <stop stop-color="#F58220" offset="1"/>
 </linearGradient>
 <path d="m489.61 171.91c20.68 17.02 44.84 45.78 50.21 89.48-8.74-3.13-17.88-5.93-27.42-8.37l-6.78-1.74-4.32 5.52c-2.26 2.87-4.7 5.82-7.27 8.81-45.46-59.99-92.63-74.29-124.97-75.39-27.97-0.96-52.82 7.37-72.56 19.11-9.27-1.76-35.21-7.79-57.27-23.23 25.75-1.93 47.92-14.83 69.55-27.42 17.78-10.35 34.56-20.12 52.87-23.72 40.08-7.89 91.51 6.97 127.96 36.95z" fill="url(#ak)"/>
 <linearGradient id="al" x1="398.73" x2="398.73" y1="1384" y2="598.09" gradientUnits="userSpaceOnUse">
  <stop stop-color="#FBD437" offset="0"/>
  <stop stop-color="#ED1C24" offset=".5056"/>
  <stop stop-color="#F58220" offset="1"/>
 </linearGradient>
 <path d="m498.4 625.27c1.52 11.16 3.81 24.11 7.18 37-164.18 148.8-138.07 241.38-86.41 423.57 11.61 40.92 24.76 87.31 37.22 139.86 10.4 43.88 12.22 84.56 8.14 120.51l-1.01-0.76c-0.33 0.4401-28 36.35-72.85 38.51 8.89-8.0599 15.83-18.07 20.75-29.99 25.14-60.88-2.32-171.62-86.39-348.5-37.33-78.54-43.17-155.11-17.34-227.58 31.99-89.75 105.82-152.28 161.2-179.8 8.13 3.01 16.83 4.97 25.99 5.79-1.1 0.61-2.28 1.26-3.6 1.99-3.61 2.08-8.12 5.06-13.18 8.23-4.97 3.31-10.23 7.22-16.06 11.48-5.53 4.61-11.85 9.19-17.82 14.82-3.04 2.76-6.22 5.53-9.35 8.48-3.04 3.04-6.15 6.14-9.31 9.3-3.22 3.08-6.18 6.54-9.25 9.94-3.01 3.47-6.3 6.74-9.13 10.48-2.91 3.65-5.86 7.33-8.81 11.01-2.91 3.73-5.53 7.7-8.3 11.53l-4.1 5.8-3.75 6.02c-2.47 4.01-4.92 8.01-7.36 11.98-4.23 8.32-8.98 16.15-12.27 24.39-1.77 4.05-3.51 8.04-5.21 11.93-1.41 4.02-2.79 7.94-4.13 11.77-2.94 7.54-4.45 15.08-6.3 21.86-0.44 1.7-0.87 3.36-1.3 4.99-0.28 1.66-0.55 3.29-0.81 4.87-0.53 3.16-1.02 6.16-1.49 8.98-0.41 2.82-1.02 5.42-1.19 7.89-0.17 2.46-0.32 4.72-0.46 6.76-0.57 8.14-0.89 12.79-0.89 12.79s0.66-4.61 1.8-12.68c0.28-2.02 0.6-4.24 0.95-6.66 0.34-2.43 1.13-4.99 1.73-7.74 0.67-2.75 1.36-5.67 2.11-8.75 0.37-1.54 0.75-3.11 1.14-4.73 0.54-1.5699 1.08-3.19 1.64-4.84 2.32-6.55 4.3-13.79 7.73-20.98 1.57-3.63 3.19-7.3701 4.84-11.18 1.94-3.69 3.91-7.45 5.93-11.27 3.75-7.77 8.95-15.09 13.6-22.81 2.63-3.67 5.29-7.37 7.96-11.09l4.04-5.54 4.36-5.31c2.96-3.52 5.73-7.16 8.8-10.54 3.09-3.34 6.18-6.67 9.24-9.98 2.97-3.39 6.37-6.31 9.49-9.42 3.18-3.05 6.23-6.15 9.53-8.88 3.24-2.8 6.41-5.55 9.52-8.24 3.19-2.59 6.4-5 9.48-7.42 6.05-4.95 12.35-8.83 17.84-12.8 5.73-3.57 11.03-6.95 15.71-9.59 3.85-2.0398 7.13-3.8797 10.15-5.4498z" fill="url(#al)"/>
 <linearGradient id="am" x1="325.04" x2="325.04" y1="379.29" y2="211.6" gradientUnits="userSpaceOnUse">
  <stop stop-color="#FBD437" offset="0"/>
  <stop stop-color="#ED1C24" offset=".5056"/>
  <stop stop-color="#F58220" offset="1"/>
 </linearGradient>
 <path d="m297.06 273.67c0.3-0.17 2.83-1.59 7.08-3.94 2.32-1.13 4.85-3.05 8.25-4.23 3.35-1.29 7.07-2.85 11.16-4.33 4.28-0.94 8.8-2.35 13.68-3.11 4.97-0.34 10.09-1.44 15.47-0.92 2.68 0.15 5.39 0.05 8.11 0.41 2.71 0.44 5.44 0.89 8.2 1.34 2.77 0.28 5.43 1.4 8.15 2.08 2.71 0.77 5.42 1.48 8.01 2.68 2.61 1.1 5.23 2.1 7.78 3.25 2.47 1.32 4.94 2.64 7.39 3.95 2.49 1.18 4.69 2.91 6.98 4.34 2.27 1.49 4.54 2.89 6.56 4.61 2.06 1.62 4.09 3.21 6.08 4.78 1.86 1.71 3.67 3.39 5.44 5.02 3.63 3.14 6.45 6.75 9.36 9.7 2.52 3.27 5.09 6.22 6.88 8.86 1.55 2.39 2.89 4.23 4.07 6.14-5.5 5.02-10.82 9.77-15.75 14.11-44-30.15-85.68-40.2-123.95-29.78-43.58 11.86-72.73 47.27-91.24 80.57-11.48 0.43-30.52-0.37-43.99-6.02 39.83-13.15 65.1-54.34 86.04-88.45 7.42-12.1 14.44-23.53 21.05-31.83 15.85-19.91 49.09-42.63 90.46-41.24 39.97 1.35 78.19 25.58 110.96 70.1-6.02 6.26-12.36 12.54-18.72 18.63-1.14-1.35-2.41-2.83-3.7-4.36-2.64-3.05-5.79-5.93-9.13-9.33-3.65-3-7.27-6.61-11.72-9.69-2.17-1.59-4.39-3.21-6.68-4.88-2.39-1.48-4.85-2.99-7.33-4.53-2.43-1.62-5.13-2.91-7.82-4.27-2.72-1.3-5.3-2.87-8.23-3.89-2.84-1.13-5.71-2.27-8.59-3.41-2.95-0.94-5.97-1.74-8.94-2.6-2.95-0.97-6.04-1.43-9.09-1.93-3.07-0.42-6.02-1.26-9.11-1.25-3.03-0.15-6.04-0.3-9.01-0.44-2.97-0.04-5.91 0.38-8.78 0.55-5.76 0.12-11.13 1.87-16.25 2.83-5.02 1.38-9.57 3.37-13.82 4.84-4.05 2-7.66 4.02-10.88 5.71-3.29 1.57-5.65 3.81-7.83 5.21-3.96 2.82-6.32 4.52-6.6 4.72z" fill="url(#am)"/>
 <linearGradient id="an" x1="302.12" x2="302.12" y1="1267" y2="522.32" gradientUnits="userSpaceOnUse">
  <stop stop-color="#FBD437" offset="0"/>
  <stop stop-color="#ED1C24" offset=".5056"/>
  <stop stop-color="#F58220" offset="1"/>
 </linearGradient>
 <path d="m423.57 561.41c6.14 9.69 13.8 17.89 22.65 24.46-57.11 32.24-127.09 96.02-158.73 184.83-27.81 78.02-21.7 160.11 18.17 243.98 41.31 86.92 68.76 157.76 82.65 213.47l-2.24-1.03c-0.17 0.37-15.25 31.88-65.18 39.89 39.27-50.03 23.2-133.7-124.28-333.02-58.93-79.65-39.57-162.62-12.94-218.21 49.44-103.23 153.5-180.23 225.67-193.46 0.98 6.98 2.67 13.81 5.05 20.38-0.63 0.27-1.24 0.53-1.94 0.84-4.27 1.7599-9.13 4.11-14.66 6.83-5.47 2.84-11.55 6.19-18.01 10.07-6.41 3.96-13.24 8.39-20.2 13.41-6.97 5.02-14.14 10.52-21.26 16.54-7.14 5.98-14.29 12.43-21.24 19.27-7.03 6.77-13.73 14.05-20.31 21.43-12.99 14.9-24.84 30.75-34.46 46.55-4.85 7.86-9.13 15.7-12.79 23.34-3.77 7.58-6.66 15.06-9.21 21.97-2.36 6.99-4.24 13.48-5.45 19.34-1.27 5.85-1.94 11.02-2.32 15.28-0.35 4.27-0.46 7.62-0.35 9.92 0.03 2.28 0.04 3.49 0.04 3.49s0.07-1.21 0.2-3.49c0.05-2.28 0.38-5.61 1.03-9.81 0.66-4.19 1.68-9.24 3.32-14.91 1.58-5.68 3.88-11.93 6.66-18.61 2.96-6.61 6.28-13.71 10.49-20.87 4.08-7.21 8.79-14.57 14.05-21.91 10.43-14.75 23.03-29.38 36.62-42.96 6.87-6.72 13.84-13.31 21.07-19.37 7.16-6.14 14.46-11.86 21.7-17.12 7.21-5.3 14.41-10.08 21.35-14.37 6.94-4.32 13.67-8.05 19.94-11.34 6.3-3.23 12.17-5.94 17.4-8.22 5.3-2.16 9.9-4.02 13.61-5.25 1.35-0.5101 2.65-0.9501 3.9-1.34z" fill="url(#an)"/>
 <linearGradient id="ao" x1="247.26" x2="247.26" y1="703.83" y2="436.77" gradientUnits="userSpaceOnUse">
  <stop stop-color="#FBD437" offset="0"/>
  <stop stop-color="#ED1C24" offset=".5056"/>
  <stop stop-color="#F58220" offset="1"/>
 </linearGradient>
 <path d="m263.74 539.08c0.07-0.15 0.36-0.82 0.83-1.95 0.62-1.26 1.21-3.23 2.52-5.5 0.6-1.14 1.28-2.41 2.01-3.78 0.84-1.32 1.75-2.7401 2.73-4.25 2.03-2.96 4.51-6.17 7.49-9.39 2.97-3.25 6.5-6.44 10.39-9.61 3.99-3.03 8.27-6.12 13.03-8.79 9.39-5.56 20.2-10.02 31.27-13.43 22.19-6.76 45.59-8.83 62.33-7.6 6.53 0.43 11.98 1.32 16.08 2.31-2.12 7.82-3.43 15.71-3.9 23.54-82.44 13.39-187.24 98.26-238.05 193.8-24.68 12.48-56.46 12.6-80.16 0-9.41-5-16.64-11.63-21.34-19.41 12.21 2.64 25.08 2.21 38.09-1.35 39.14-10.73 70.47-45.68 86.72-74.82 5.77-10.35 11.16-20.18 16.27-29.54 55.02-100.6 75.81-138.59 212.67-131.76l2.83 8.22c-2.31 3.94-4.35 7.97-6.2 12.03-5.9-1-13.75-1.54-22.87-1.11-19.04 0.77-43.54 5.86-66.18 15.63-11.28 4.92-22.11 10.89-31.31 17.83-4.66 3.37-8.79 7.11-12.59 10.74-3.69 3.76-6.97 7.49-9.66 11.18-2.71 3.68-4.88 7.26-6.61 10.51-0.81 1.65-1.58 3.2-2.28 4.62-0.59 1.48-1.13 2.84-1.61 4.06-1.05 2.41-1.43 4.47-1.89 5.79-0.35 1.17-0.56 1.8699-0.61 2.0299z" fill="url(#ao)"/>
 <linearGradient id="ap" x1="268.74" x2="268.74" y1="556.93" y2="316.12" gradientUnits="userSpaceOnUse">
  <stop stop-color="#FBD437" offset="0"/>
  <stop stop-color="#ED1C24" offset=".5056"/>
  <stop stop-color="#F58220" offset="1"/>
 </linearGradient>
 <path d="m408.59 396.44l6.64 19.33c-138-5.07-166.89 39.13-218.63 133.45-12.75 7.88-29.32 9.9-44.84 5.25-11.71-3.53-21.79-10.27-29.52-19.59h0.55c50.72-0.01 70.67-50.5 88.53-95.72 4.23-10.7 8.6-21.76 13.23-31.86 15.38-33.51 42.97-75.97 87.09-87.98 30.6-8.32 64.72-0.37 101.48 23.61-7.25 6.13-11.85 9.85-12.02 9.99l-5.84 4.73 2.92 8.5c-16.13-6.63-36.84-10.7-57.64-9.66-5.97 0.41-11.93 1.06-17.67 2.4-5.75 1.27-11.31 2.99-16.43 5.26-5.16 2.13-9.82 4.96-13.99 7.86-2.1 1.42-3.92 3.13-5.79 4.6-1.76 1.61-3.34 3.29-4.9 4.83-2.89 3.32-5.36 6.47-7.2 9.5-2.03 2.9-3.2 5.78-4.45 7.95-1.93 4.63-3.02 7.28-3.02 7.28s1.39-2.48 3.83-6.84c1.5-2 2.94-4.65 5.24-7.23 2.12-2.7 4.85-5.45 7.94-8.26 1.66-1.28 3.31-2.68 5.13-3.99 1.93-1.17 3.77-2.56 5.89-3.64 4.18-2.22 8.71-4.31 13.67-5.69 4.9-1.52 10.13-2.49 15.48-3.02 5.33-0.6 10.82-0.54 16.26-0.29 21.79 1.41 42.95 9.29 55.76 17.88 6.5 4.17 10.7 8.58 12.22 11.22 0.02 0.04 0.05 0.08 0.08 0.13z" fill="url(#ap)"/>
</svg>
