<?xml version="1.0" encoding="UTF-8"?>
<svg enable-background="new 0 0 1078.943 1600" version="1.1" viewBox="0 0 1078.943 1600" xmlns="http://www.w3.org/2000/svg">
 <path d="m892.01 0h186.93v1600h-1078.9c11.404-23.154 9.946-5.516 28.495-40.803 1.572-5.618 7.427-21.091 9.258-25.472 15.127-46.13 2.884-19.245 13.873-70.89 5.245-8.749 4.47-9.456 39.09-29.605-3.519-18.973-6.116-11.641-2.943-25.177 0.776-1.365 1.552-2.702 2.314-4.04 0.575-2.261 1.191-4.495 1.753-6.743 3.251-5.646 6.863-11.13 10.97-16.187 3.293-1.909 4.966-1.741 16.923-4.856 3.384-14.593 0.18-24.885 9.485-36.629 9.993-3.652 18.515-10.14 27.732-15.291 15.88-1.318 20.569 6.796 40.977-2.207 5.177-2.341 7.398-7.987 10.448-12.388-4.375 0.04-8.763 0.094-13.084-0.602-18.836-3.369-43.973 8.808-28.428-42.849 1.686-3.452 4.656-7.064 2.796-11.063-1.833-8.228 2.448-15.826 2.876-23.853-1.8-23.863 3e-3 -25.837 2.475-37.485 0.495-0.589 1.472-1.766 1.953-2.354 6.363-35.143 29.193-97.576 30.114-100.67 3.533-4.968 0.536-0.953 5.98-9.217 0.73-11.562 8.394-20.253-1.498-45.298 0.12-0.441 0.361-1.338 0.482-1.779-0.642-0.589-1.926-1.779-2.569-2.368 0.241-0.843 0.482-1.686 0.736-2.502-4.642-10.236-10.754-38.344-15.117-49.124-26.252-45.335-21.123-31.993-32.615-61.271-10.788-26.97 8.661-53.814 12.508-61.298 19.633-35.382-2.558-3.03 37.766-57.432 31.709-41.77 38.337-61.576 88.91-98.288 8.589-6.007 17.699-11.786 28.12-13.913 0.294-5.712-0.99-11.786 1.07-17.231 6.395-8.656 18.542-6.595 27.893-8.08 25.984-7.781 25.111-3.13 28 5.351 7.345-1.913 14.435-4.682 21.873-6.207 0.709 1.191 1.418 2.395 2.127 3.599 19.901-12.299 51.379-17.068 65.044 2.943 9.913 13.766 14.809 31.866 10.742 48.575 2.007 1.003 3.96 2.207 6.114 2.89 2.609-0.281 5.164-0.977 7.692-1.699 0.291-1.001 39.888-126.13 41.766-131.22-9.552-4.535-19.839-1.231-29.686 0.107-1.659-4.348-3.652-8.602-4.776-13.124 5.202-4.508 19.06 4.183 29.485 4.963 11.935 0.682 46.576 6.48 69.712 28.04 2.341 1.766 2.395 4.843 3.09 7.465-9.738-2.57-39.092-23.328-54.997-20.789-1.311 1.271-2.207 2.916-2.796 4.642-10.783 40.722-24.656 80.575-36.656 120.94 0.936 0.268 2.796 0.789 3.732 1.057 1.003 3.425 1.753 6.943 2.181 10.502 1.819 1.659 3.692 3.264 5.619 4.83-0.214 2.074 0.388 4.415-0.763 6.288-3.064 2.074-6.783 2.823-10.154 4.227-0.526 8.635 2.601 15.373-15.371 19.866-5.538 7.666-7.987 17.619-15.318 24.08-0.763-7.799-1.565-15.679-0.348-23.465-3.237-0.375-6.448-0.803-9.632-1.391-3.732 2.609-8.147 3.866-12.682 4.053-1.967 2.943-4.482 5.458-7.652 7.117-5.421 4.718 0.549 1.757-17.779 4.669-14.243 10.745-22.841 19.664-59.344 18.903-5.06 20.664 0.73 30.47 14.221 36.321 6.528 2.676 9.953 9.458 16.334 12.308 3.625 1.94 6.756 4.629 10.274 6.716 11.449 6.399 4.273-5.846 23.224 22.261 7.837 11.57 7.354 37.606-0.468 52.749-7.184 7.318-15.599 15.545-26.689 15.211-4.08 30.381-10.007 60.535-12.415 91.13 0.87 6.783 4.134 13.512 2.676 20.482-1.672 5.11-3.612 10.14-4.936 15.385 11.53 6.149 30.979 7.424 37.993 8.268 1.969 0.043 3.642 0.81 11.813 7.478 2.154-7.291 6.167-13.793 8.789-20.883 14.515-9.646 30.836-16.468 45.017-26.542 4.361-11.973 4.187-25.084 5.873-37.605 2.047-6.167 5.659-11.679 9.164-17.097 9.699-15.458 21.527-8.768 29.953-11.237 11.488-5.604 7.621-8.365 16.95-36.04 4.548-12.843 8.187-26.515 17.057-37.191 4-6.354 8.896-12.281 11.451-19.438 15.471-46.817 41.643-53.077 47.358-78.475 2.127-6.916 0.053-14.448 2.823-21.204 0.26-0.72 26.249-56.806 29.177-62.114 2.154-3.585 5.07-6.689 6.729-10.555 5.125-12.173-2.695-8.671 11.184-26.02 11.184-14.769 28.134-23.732 39.813-38.033 4.441-10.542 5.993-22.1 6.702-33.445 1.849-19.574 14.916-64.51 16.789-75.291 2.957-5.98-4.615-8.682-8.696-10.876 13.435-23.8 36.333-9.628 76.99-20.629 3.465-0.682 6.154-3.023 8.696-5.298-1.592-0.896-3.171-1.793-4.736-2.676-0.107-0.602-0.321-1.833-0.441-2.435 2.515-1.98 4.883-4.308 7.92-5.472 9.454 0.205 25.653 7.603 40.87-5.538 9.953-9.151 18.288-20.856 20.04-34.595-3.866-1.793-7.518-4.04-10.689-6.89-5.03-4.522-11.304-7.358-16.348-11.866-15.099-12.386-15.325-18.816-20.829-28.375-10.649-15.411-18.141-32.923-22.729-51.037-2.916-7.906-7.92-14.957-10.141-23.144-2.475-13.124-3.639-26.462-5.967-39.612-1.583-10.663-13.343-14.319-12.923-45.311-0.401-5.753 0.214-11.853-2.462-17.177-0.053-0.843-0.174-2.515-0.227-3.358-0.147-0.361-0.442-1.11-0.589-1.485 0.013-4.134-3.037-7.037-4.923-10.395-1.886-4.201 0.174-8.615 1.431-12.656 1.222-3.472 11.53-51.855 13.445-66.154 2.221-10.381-1.525-21.244 2.355-31.385 3.171-0.95 6.515-1.552 9.512-3.05 6.133-5.882 5.758-15.702 25.177-16.95 11.623-0.185 11.077 14.593 27.318 18.569 4.803-5.538 8.789-11.732 13.672-17.217 14.724-19.089-2.83 0.238 11.465-82.368m-594.13 945.34c-5.746 10.746-0.686 5.347-12.401 23.104-2.796 4.856-9.258 7.532-9.03 13.873 1.619 5.298 0.803 10.956 1.124 16.428 0.535 0.575 1.592 1.726 2.127 2.301 0.482 1.98 0.99 3.96 1.592 5.94 0 1.579-0.013 3.171-0.04 4.789-1.672 4.054-1.204 8.575-0.201 12.749-0.107 1.177-0.227 2.355-0.361 3.558 6.059 16.313-0.812 45.955-0.936 46.957-1.672 2.97-3.371 5.98-3.933 9.405-1.151 1.686-2.301 3.385-3.492 5.044-0.094 1.365-0.174 2.742-0.241 4.134-19.521 34.205-25.645 82.548-38.97 129.7-1.284 5.003-3.264 9.833-4.04 14.97-1.525 2.595-3.184 5.124-4.736 7.706-0.026 0.21-1.237 5.579-1.926 10.609-2.314 4.361 0.522 9.846 4.87 11.652 5.907 0.237 17.26-1.55 29.565 3.599 9.351 1.231 14.609 10.221 22.462 14.542 5.82-8.664 6.495-18.573 10.047-25.646 0.107-0.642 0.334-1.926 0.441-2.569 1.431-2.341 2.93-4.642 4.321-6.997 2.756-1.565 5.645-2.863 8.736-3.585 2.577-22.959 12.806-33.103 16.816-37.766 2.555-2.903 7.13-4.027 8.013-8.201 1.926-1.043 3.92-1.94 5.98-2.649 3.639-5.337 17.285-12.918 32.736-42.502 5.466-14.854 3.104-17.995 8.722-28.267-1.753 0.936-3.465 1.98-5.217 2.943-11.099-1.258-24.258 2.201-30.729-16.508 6.337-17.845 5.898-57.123 5.431-75.545 2.488-5.752 0.696-12.281 1.244-18.354 6.347-73.587 5.076-72.698 10.127-88.441-16.204 4.751-23.124-5.092-58.101 13.028z" fill="#03050B"/>
</svg>
